<?xml version="1.0" encoding="utf-8"?>

<svg xmlns="http://www.w3.org/2000/svg" xmlns:xlink="http://www.w3.org/1999/xlink" 
  height="512" width="512" viewBox="0 0 512 512">

  <text x="2" y="12" font-size="12" text-anchor="start" fill="red">0</text>
  <path d="M256  64 H0 H512" stroke="lightgray" fill="white"></path>
  <text x="2" y="68" font-size="12" text-anchor="start" fill="red">64</text>
  <path d="M256 128 H0 H512" stroke="lightgray" fill="white"></path>
  <text x="2" y="132" font-size="12" text-anchor="start" fill="red">128</text>
  <path d="M256 192 H0 H512" stroke="lightgray" fill="white"></path>
  <text x="2" y="196" font-size="12" text-anchor="start" fill="red">192</text>
  <path d="M256 256 H0 H512" stroke="lightgray" fill="white"></path>
  <text x="2" y="260" font-size="12" text-anchor="start" fill="red">256</text>
  <path d="M256 320 H0 H512" stroke="lightgray" fill="white"></path>
  <text x="2" y="324" font-size="12" text-anchor="start" fill="red">320</text>
  <path d="M256 384 H0 H512" stroke="lightgray" fill="white"></path>
  <text x="2" y="388" font-size="12" text-anchor="start" fill="red">384</text>
  <path d="M256 448 H0 H512" stroke="lightgray" fill="white"></path>
  <text x="2" y="452" font-size="12" text-anchor="start" fill="red">448</text>
  <text x="2" y="510" font-size="12" text-anchor="start" fill="red">512</text>

  <path d="M64  0 V512" stroke="lightgray" fill="white"></path>
  <text x="58" y="12" font-size="12" text-anchor="start" fill="red">64</text>
  <path d="M128  0 V512" stroke="lightgray" fill="white"></path>
  <text x="118" y="12" font-size="12" text-anchor="start" fill="red">128</text>
  <path d="M195  0 V512" stroke="lightgray" fill="white"></path>
  <text x="186" y="12" font-size="12" text-anchor="start" fill="red">192</text>
  <path d="M256  0 V512" stroke="lightgray" fill="white"></path>
  <text x="246" y="12" font-size="12" text-anchor="start" fill="red">256</text>
  <path d="M320  0 V512" stroke="lightgray" fill="white"></path>
  <text x="310" y="12" font-size="12" text-anchor="start" fill="red">320</text>
  <path d="M384  0 V512" stroke="lightgray" fill="white"></path>
  <text x="374" y="12" font-size="12" text-anchor="start" fill="red">384</text>
  <path d="M448  0 V512" stroke="lightgray" fill="white"></path>
  <text x="438" y="12" font-size="12" text-anchor="start" fill="red">448</text>
  <text x="492" y="12" font-size="12" text-anchor="start" fill="red">512</text>



  <rect width="60" height="60" x="500" y="10" fill="none" stroke="#FF0000" stroke-width="5">
    <animate dur="18s" attributeName="x" repeatCount="indefinite" to="100"/>
  </rect>
  <rect width="60" height="60" x="500" y="75" fill="none" stroke="#FFAA33" stroke-width="5">
    <animate dur="24s" attributeName="x" repeatCount="indefinite" to="100"/>
  </rect>
  <rect width="60" height="60" x="500" y="140" fill="none" stroke="#FFFF33" stroke-width="5">
    <animate dur="30s" attributeName="x" repeatCount="indefinite" to="100"/>
  </rect>
  <rect width="60" height="60" x="500" y="205" fill="none" stroke="#33FF33" stroke-width="5">
    <animate dur="36s" attributeName="x" repeatCount="indefinite" to="100"/>
  </rect>
  <rect width="60" height="60" x="500" y="270" fill="none" stroke="#33FFFF" stroke-width="5">
    <animate dur="42s" attributeName="x" repeatCount="indefinite" to="100"/>
  </rect>
  <rect width="60" height="60" x="500" y="335" fill="none" stroke="#33CCFF" stroke-width="5">
    <animate dur="48s" attributeName="x" repeatCount="indefinite" to="100"/>
  </rect>
  <rect width="60" height="60" x="500" y="400" fill="none" stroke="#5555FF" stroke-width="5">
    <animate dur="54s" attributeName="x" repeatCount="indefinite" to="100"/>
  </rect>
  <rect width="60" height="60" x="500" y="465" fill="none" stroke="#9955FF" stroke-width="5">
    <animate dur="60s" attributeName="x" repeatCount="indefinite" to="100"/>
  </rect>
  

</svg>
    