<?xml version="1.0" encoding="UTF-8" standalone="no"?>
<!-- Generator: Adobe Illustrator 24.0.1, SVG Export Plug-In . SVG Version: 6.00 Build 0)  -->

<svg
   version="1.1"
   id="Layer_1"
   x="0px"
   y="0px"
   width="1000px"
   height="1000px"
   viewBox="0 0 1000 1000"
   style="enable-background:new 0 0 1000 1000;"
   xml:space="preserve"
   sodipodi:docname="initEdit.svg"
   inkscape:version="1.2.1 (9c6d41e4, 2022-07-14)"
   xmlns:inkscape="http://www.inkscape.org/namespaces/inkscape"
   xmlns:sodipodi="http://sodipodi.sourceforge.net/DTD/sodipodi-0.dtd"
   xmlns="http://www.w3.org/2000/svg"
   xmlns:svg="http://www.w3.org/2000/svg"><defs
   id="defs993" /><sodipodi:namedview
   id="namedview991"
   pagecolor="#ffffff"
   bordercolor="#000000"
   borderopacity="0.25"
   inkscape:showpageshadow="2"
   inkscape:pageopacity="0.0"
   inkscape:pagecheckerboard="0"
   inkscape:deskcolor="#d1d1d1"
   showgrid="false"
   inkscape:zoom="0.57558492"
   inkscape:cx="265.81655"
   inkscape:cy="416.09846"
   inkscape:window-width="1379"
   inkscape:window-height="777"
   inkscape:window-x="61"
   inkscape:window-y="25"
   inkscape:window-maximized="0"
   inkscape:current-layer="illustration" />
<g
   id="illustration"
   style="fill:#000000"
   inkscape:label="illustration">
	
	
	
	
	
	
	
	
	
	
	
	
	
	
	
	
	
	
	
	
	
	
	
	
	
	
	
	
	
	
	
<path
   style="fill:#ff0000"
   d="m 351.95983,260.71313 h 79.41888 l 18.80974,96.13864 106.58849,-6.26991 22.98968,-98.22861 h 73.14896 l -58.51917,259.15634 150.47788,384.55457 -478.60325,2.08997 146.29794,-382.4646 z"
   id="path519" /><ellipse
   style="fill:#ffffff"
   id="path801"
   cx="378.08447"
   cy="741.40637"
   rx="24.03466"
   ry="27.169617" /><ellipse
   style="fill:#ffffff"
   id="path803"
   cx="528.56238"
   cy="809.33038"
   rx="26.124632"
   ry="24.03466" /><ellipse
   style="fill:#ffffff"
   id="path805"
   cx="629.9259"
   cy="725.73157"
   rx="27.169617"
   ry="24.03466" /><ellipse
   style="fill:#ffffff"
   id="path807"
   cx="571.4068"
   cy="431.04575"
   rx="20.899706"
   ry="19.854719" /><ellipse
   style="fill:#ffffff"
   id="path809"
   cx="396.8942"
   cy="334.90707"
   rx="21.944691"
   ry="19.854719" /><circle
   style="fill:#ffffff"
   id="path811"
   cx="464.81827"
   cy="482.25"
   r="22.989676" /><ellipse
   style="fill:#ffffff"
   id="path813"
   cx="453.32339"
   cy="637.95276"
   rx="24.03466"
   ry="19.854719" /><ellipse
   style="fill:#ffffff"
   id="path815"
   cx="707.25482"
   cy="880.3894"
   rx="18.809734"
   ry="17.76475" /><ellipse
   style="fill:#ffffff"
   id="path817"
   cx="328.97015"
   cy="868.89459"
   rx="20.899706"
   ry="16.719765" /><ellipse
   style="fill:#ffffff"
   id="path821"
   cx="593.35144"
   cy="586.74854"
   rx="26.124632"
   ry="18.809734" /><path
   style="fill:#2b1100"
   d="m 435.55865,902.33407 c 0.002,2.63792 -0.0181,16.75597 -2.08997,20.89971 -2.48841,4.97682 -20.07866,5.44887 -20.8997,6.26991 -0.49261,0.49261 0.49261,1.59736 0,2.08997 -2.09933,2.09933 -11.48385,2.60697 -14.6298,4.17994 -10.90185,5.45093 -17.53273,10.85634 -29.25958,16.71977 -1.26187,0.63093 -5.3038,-0.96612 -6.26991,0 -0.49262,0.49261 0.49261,1.59736 0,2.08997 -1.10152,1.10151 -3.07843,0.98846 -4.17995,2.08997 -2.89575,2.89575 -4.24664,6.30327 -8.35988,8.35987 -2.63862,1.3193 -10.53347,-2.0063 -12.53982,0 -0.49261,0.4926 0.49261,1.5974 0,2.09 -1.55777,1.5578 -4.43689,0.8679 -6.26991,2.0899 -4.14036,-0.2086 -0.98846,3.0785 -2.08997,4.18 -0.49261,0.4926 -2.78663,0 -2.08997,0 9.59826,0 18.19441,0.1538 27.16961,-2.09 2.02757,-0.5069 4.28719,0.6609 6.26991,0 2.38294,-0.7943 3.88698,-3.3856 6.26992,-4.1799 1.98272,-0.6609 4.40058,0.9346 6.26991,0 0.88121,-0.4406 1.15531,-1.7784 2.08997,-2.09 4.36695,-1.4556 10.15519,1.1187 14.62979,0 6.38185,-1.5955 9.1219,-8.61388 14.6298,-10.44984 1.32181,-0.44061 2.93372,0.6231 4.17994,0 0.62311,-0.31156 -0.49261,-1.59736 0,-2.08997 1.32569,-1.3257 6.61979,0.87004 8.35988,0 2.43455,-1.21728 3.83536,-2.96267 6.26991,-4.17995 0.42871,-0.21435 5.97517,-0.29474 6.26991,0 2.19851,2.19851 0,17.83566 0,20.89966 0,1.3934 -0.98522,3.1948 0,4.18 2.62213,2.6221 12.61291,-3.1715 14.62979,-4.18 1.24622,-0.6231 3.19472,0.9853 4.17995,0 1.15813,-1.1581 3.78013,-9.4503 4.17994,-10.4498 2.18607,-5.46518 6.64353,-11.57073 8.35988,-16.71977 3.48452,-10.45357 -2.08997,-23.80282 -2.08997,-33.43953 0,-2.51033 -1.0988,-8.25225 0,-10.44985 2.58258,-5.16516 2.08997,0.72141 2.08997,-4.17994"
   id="path949" /><path
   style="fill:#2b1100"
   d="m 548.41706,898.15413 c 0,21.59636 0,43.19273 0,64.78905 0,2.5545 1.01081,5.1908 2.08997,6.2699 1.32569,1.3257 6.6198,-0.87 8.35988,0 1.31325,0.6567 6.19548,4.2544 8.35988,2.09 1.33442,-1.3344 0,-10.8652 0,-12.5398 0,-3.90039 0.44616,-2.98229 2.08997,-6.26991 1.82597,-3.65193 0,-12.70344 0,-16.71977 0,-1.39331 -0.98522,-3.19472 0,-4.17994 0.33126,-0.33126 8.35189,4.17595 12.53983,6.26991 2.35009,1.17505 3.79424,5.44469 6.26991,6.26991 1.32181,0.44061 2.82823,-0.33792 4.17994,0 6.0614,1.51535 2.44582,1.63055 6.26991,4.17994 3.85841,2.57228 8.68142,3.69764 12.53982,6.26992 8.6506,5.76704 16.46089,12.41034 25.07965,16.71974 7.80256,3.9013 21.45703,-3.9013 29.25959,0 2.06715,1.0336 16.74479,6.2449 18.80973,4.18 1.65159,-1.6516 -2.85484,-9.1248 -4.17994,-10.4499 -2.98777,-2.9878 -8.82855,-4.6486 -10.44985,-6.2699 -0.49261,-0.49261 0.31155,-1.46686 0,-2.08997 -0.81687,-1.63373 -9.01358,-5.91085 -10.44985,-6.26992 -6.96657,-1.74164 -4.64438,1.1611 -10.44986,0 -11.74328,-2.34865 -18.07927,-8.06769 -29.25958,-12.53982 -2.33218,-0.93287 -3.88698,-3.38563 -6.26992,-4.17994 -1.98272,-0.66091 -4.40058,0.93466 -6.26991,0 -2.82343,-1.41172 -5.64812,-2.82406 -8.35988,-4.17994 -1.76242,-0.88121 -2.41752,-3.29873 -4.17994,-4.17994 -1.67198,-0.83599 -4.59793,0.83599 -6.26991,0 -0.62311,-0.31156 0.49261,-1.59736 0,-2.08997 -0.98522,-0.98522 -3.19472,0.98522 -4.17994,0 -0.49261,-0.49261 0.49261,-1.59736 0,-2.08997 -0.98522,-0.98522 -2.93373,0.62311 -4.17994,0 -0.88121,-0.44061 -1.20876,-1.64937 -2.08997,-2.08997 -4.77937,-2.38968 -9.23981,1.21004 -12.53983,-2.08997 -0.78167,-0.78168 -0.78167,-18.02806 0,-18.80974 1.94654,-1.94654 2.08997,0.16392 2.08997,-4.17994"
   id="path951"
   inkscape:label="path951" /></g>
<g
   id="skeleton_1_"
   sodipodi:insensitive="true"
   style="opacity:0.25">
	<circle
   id="rightShoulder"
   cx="392.79999"
   cy="294.29999"
   r="8.1999998" />
	<circle
   id="rightElbow"
   cx="289.29999"
   cy="294.39999"
   r="8.1999998" />
	
		<circle
   id="rightWrist"
   transform="matrix(0.9951,-0.09853767,0.09853767,0.9951,-29.0274,13.8698)"
   cx="125.9"
   cy="300.79999"
   r="8.1999998" />
	<circle
   id="rightHip"
   cx="443.10001"
   cy="510.10001"
   r="8.1999998" />
	<circle
   id="rightKnee"
   cx="449.5"
   cy="670.29999"
   r="8.1999998" />
	<circle
   id="rightAnkle"
   cx="449.5"
   cy="878.29999"
   r="8.1999998" />
	<circle
   id="leftShoulder"
   cx="605.70001"
   cy="294.29999"
   r="8.1999998" />
	<circle
   id="leftElbow"
   cx="710.09998"
   cy="294"
   r="8.1999998" />
	<circle
   id="leftWrist"
   cx="873.5"
   cy="300.29999"
   r="8.1999998" />
	<circle
   id="leftHip"
   cx="559.5"
   cy="509.29999"
   r="8.1999998" />
	<circle
   id="leftKnee"
   cx="559.5"
   cy="670.29999"
   r="8.1999998" />
	<circle
   id="leftAnkle"
   cx="559.5"
   cy="878.29999"
   r="8.1999998" />
	<polygon
   style="fill:none;stroke:#000000;stroke-miterlimit:10"
   points="443,510.4 559.4,509.6 605.6,294.6 392.7,294.6 "
   id="polygon886" />
	<polyline
   style="fill:none;stroke:#000000;stroke-miterlimit:10"
   points="391.7,294.6 289,294.6 125.7,300.9  "
   id="polyline888" />
	<polyline
   style="fill:none;stroke:#000000;stroke-miterlimit:10"
   points="607.1,294.2 710.3,294.2 873.6,300.6  "
   id="polyline890" />
	<polyline
   style="fill:none;stroke:#000000;stroke-miterlimit:10"
   points="443,510.4 449.4,670.6 449.4,878.6  "
   id="polyline892" />
	<polyline
   style="fill:none;stroke:#000000;stroke-miterlimit:10"
   points="559.4,509.6 559.4,670.6 559.4,878.6  "
   id="polyline894" />
	<circle
   id="rightEye0"
   cx="468.60001"
   cy="160.2"
   r="0.80000001" />
	<circle
   id="rightBrow1"
   cx="466.39999"
   cy="148.3"
   r="0.80000001" />
	<circle
   id="rightBrow4"
   cx="489.70001"
   cy="151.3"
   r="0.80000001" />
	<circle
   id="nose1"
   cx="497.60001"
   cy="161.2"
   r="0.80000001" />
	<circle
   id="rightBrow3"
   cx="479.89999"
   cy="147.3"
   r="0.80000001" />
	<circle
   id="rightEye1"
   cx="473.79999"
   cy="156.5"
   r="0.80000001" />
	<circle
   id="rightBrow0"
   cx="462.39999"
   cy="152"
   r="0.80000001" />
	<circle
   id="rightBrow2"
   cx="472.60001"
   cy="147.3"
   r="0.80000001" />
	<circle
   id="rightEye5"
   cx="473.79999"
   cy="162.5"
   r="0.80000001" />
	<circle
   id="rightEye2"
   cx="480.10001"
   cy="156.5"
   r="0.80000001" />
	<circle
   id="rightEye3"
   cx="485.29999"
   cy="160.7"
   r="0.80000001" />
	<circle
   id="nose0"
   cx="497.60001"
   cy="155.39999"
   r="0.80000001" />
	<circle
   id="nose3"
   cx="497.60001"
   cy="173.8"
   r="0.80000001" />
	<circle
   id="rightNose0"
   cx="486.89999"
   cy="178.3"
   r="0.80000001" />
	<circle
   id="rightMouthCorner"
   cx="480.89999"
   cy="200.39999"
   r="0.80000001" />
	<circle
   id="rightNose1"
   cx="492.10001"
   cy="178.3"
   r="0.80000001" />
	<circle
   id="rightUpperLipTop0"
   cx="487.79999"
   cy="197"
   r="0.80000001" />
	<circle
   id="nose2"
   cx="497.60001"
   cy="166.7"
   r="0.80000001" />
	<circle
   id="nose4"
   cx="497.60001"
   cy="179.10001"
   r="0.80000001" />
	<circle
   id="upperLipTopMid"
   cx="498.39999"
   cy="196.8"
   r="0.80000001" />
	<circle
   id="rightUpperLipTop1"
   cx="494.29999"
   cy="195.89999"
   r="0.80000001" />
	<path
   id="rightMiddleLip"
   d="m 484.5,199.9 c 0.4,0 0.8,0.4 0.8,0.8 0,0.4 -0.4,0.8 -0.8,0.8 -0.4,0 -0.8,-0.4 -0.8,-0.8 0,-0.4 0.4,-0.8 0.8,-0.8 z" />
	<circle
   id="lowerLipBottomMid"
   cx="498.39999"
   cy="210"
   r="0.80000001" />
	<circle
   id="upperLipBottomMid"
   cx="498.39999"
   cy="200.39999"
   r="0.80000001" />
	<circle
   id="lowerLipTopMid"
   cx="498.39999"
   cy="203.5"
   r="0.80000001" />
	<circle
   id="rightUpperLipBottom1"
   cx="494.5"
   cy="199.89999"
   r="0.80000001" />
	<circle
   id="rightLowerLipTop0"
   cx="494.5"
   cy="202.8"
   r="0.80000001" />
	<circle
   id="rightLowerLipBottom1"
   cx="494.29999"
   cy="209.5"
   r="0.80000001" />
	<circle
   id="rightLowerLipBottom0"
   cx="487.29999"
   cy="206.7"
   r="0.80000001" />
	<circle
   id="rightEye4"
   cx="480.10001"
   cy="161.7"
   r="0.80000001" />
	<circle
   id="jawMid"
   cx="498.39999"
   cy="235.8"
   r="0.80000001" />
	<circle
   id="rightJaw7"
   cx="483.39999"
   cy="232.60001"
   r="0.80000001" />
	<circle
   id="rightJaw6"
   cx="473.39999"
   cy="225.89999"
   r="0.80000001" />
	<circle
   id="rightJaw5"
   cx="461.79999"
   cy="213.39999"
   r="0.80000001" />
	<circle
   id="rightJaw4"
   cx="455"
   cy="193.39999"
   r="0.80000001" />
	<circle
   id="rightJaw3"
   cx="454.20001"
   cy="171.7"
   r="0.80000001" />
	<circle
   id="rightJaw2"
   cx="454.20001"
   cy="162.2"
   r="0.80000001" />
	<circle
   id="rightJaw1"
   cx="455"
   cy="150.5"
   r="0.80000001" />
	<circle
   id="rightJaw0"
   cx="457.5"
   cy="141.2"
   r="0.80000001" />
	<circle
   id="topMid"
   cx="498.60001"
   cy="115.1"
   r="0.80000001" />
	<circle
   id="leftTop0"
   cx="518.29999"
   cy="117.6"
   r="0.80000001" />
	<circle
   id="leftTop1"
   cx="530.90002"
   cy="127.1"
   r="0.80000001" />
	<circle
   id="leftEye0"
   cx="528.20001"
   cy="160.2"
   r="0.80000001" />
	<circle
   id="leftBrow1"
   cx="530.09998"
   cy="148.7"
   r="0.80000001" />
	<circle
   id="leftBrow4"
   cx="506.5"
   cy="150.8"
   r="0.80000001" />
	<circle
   id="leftBrow3"
   cx="516.5"
   cy="147.60001"
   r="0.80000001" />
	<circle
   id="leftEye1"
   cx="523"
   cy="156.5"
   r="0.80000001" />
	<circle
   id="leftBrow0"
   cx="534.09998"
   cy="151.60001"
   r="0.80000001" />
	<circle
   id="leftBrow2"
   cx="523.79999"
   cy="147.2"
   r="0.80000001" />
	<circle
   id="leftEye5"
   cx="523"
   cy="162.5"
   r="0.80000001" />
	<circle
   id="leftEye2"
   cx="516.70001"
   cy="156.5"
   r="0.80000001" />
	<circle
   id="leftEye3"
   cx="511.5"
   cy="160.7"
   r="0.80000001" />
	<circle
   id="leftNose0"
   cx="508"
   cy="178.3"
   r="0.80000001" />
	<circle
   id="leftMouthCorner"
   cx="515.90002"
   cy="200.39999"
   r="0.80000001" />
	<circle
   id="leftNose1"
   cx="503.20001"
   cy="178.3"
   r="0.80000001" />
	<circle
   id="leftUpperLipTop0"
   cx="509"
   cy="197"
   r="0.80000001" />
	<circle
   id="leftUpperLipTop1"
   cx="502.60001"
   cy="195.89999"
   r="0.80000001" />
	<path
   id="leftMiddleLip"
   d="m 512.3,199.9 c 0.4,0 0.8,0.4 0.8,0.8 0,0.4 -0.4,0.8 -0.8,0.8 -0.4,0 -0.8,-0.4 -0.8,-0.8 0,-0.4 0.4,-0.8 0.8,-0.8 z" />
	<circle
   id="leftUpperLipBottom1"
   cx="502.39999"
   cy="199.89999"
   r="0.80000001" />
	<circle
   id="leftLowerLipTop0"
   cx="502.39999"
   cy="202.8"
   r="0.80000001" />
	<circle
   id="leftLowerLipBottom1"
   cx="502.60001"
   cy="209.5"
   r="0.80000001" />
	<circle
   id="leftLowerLipBottom0"
   cx="509.5"
   cy="206.7"
   r="0.80000001" />
	<circle
   id="leftEye4"
   cx="516.70001"
   cy="161.7"
   r="0.80000001" />
	<circle
   id="leftJaw7"
   cx="513.20001"
   cy="233"
   r="0.80000001" />
	<circle
   id="leftJaw6"
   cx="523.20001"
   cy="226.3"
   r="0.80000001" />
	<circle
   id="leftJaw5"
   cx="534.79999"
   cy="213.7"
   r="0.80000001" />
	<circle
   id="leftJaw4"
   cx="541.59998"
   cy="193.7"
   r="0.80000001" />
	<circle
   id="leftJaw3"
   cx="542.40002"
   cy="172.10001"
   r="0.80000001" />
	<circle
   id="leftJaw2"
   cx="542.40002"
   cy="162.5"
   r="0.80000001" />
	<circle
   id="leftJaw1"
   cx="541.59998"
   cy="150.8"
   r="0.80000001" />
	<circle
   id="leftJaw0"
   cx="539.09998"
   cy="141.60001"
   r="0.80000001" />
	<polyline
   style="fill:none;stroke:#000000;stroke-miterlimit:10"
   points="498.4,115.1 478.6,117.6 466.1,127.1 457.5,141.2    455,150.5 454.2,162.2 454.2,171.7 455,193.4 461.8,213.4 473.4,225.9 483.4,232.6 498.4,235.8 513.2,233 523.2,226.3 534.8,213.7    541.6,193.7 542.4,172.1 542.4,162.5 541.6,150.8 539.1,141.6 530.9,127.1 518.3,117.6 498.4,115.1  "
   id="polyline967" />
	<polyline
   style="fill:none;stroke:#000000;stroke-miterlimit:10"
   points="462.4,152 466.4,148.3 472.6,147.3 479.9,147.3    489.7,151.3  "
   id="polyline969" />
	<polygon
   style="fill:none;stroke:#000000;stroke-miterlimit:10"
   points="473.8,156.5 480.1,156.5 485.3,160.7 480.1,161.7 473.8,162.5 468.6,160.2 "
   id="polygon971" />
	<polyline
   style="fill:none;stroke:#000000;stroke-miterlimit:10"
   points="486.9,178.3 492.1,178.3 497.6,179.1 497.6,173.8    497.6,166.7 497.6,161.2 497.6,155.4  "
   id="polyline973" />
	<polyline
   style="fill:none;stroke:#000000;stroke-miterlimit:10"
   points="533.9,151.6 529.9,148.7 523.6,147.2 516.3,147.6    506.3,150.8  "
   id="polyline975" />
	<polygon
   style="fill:none;stroke:#000000;stroke-miterlimit:10"
   points="522.7,156.5 516.4,156.5 511.3,160.7 516.4,161.7 522.7,162.5 528,160.2 "
   id="polygon977" />
	<polyline
   style="fill:none;stroke:#000000;stroke-miterlimit:10"
   points="508,178.3 503,178.3 497.6,179.1  "
   id="polyline979" />
	<polygon
   style="fill:none;stroke:#000000;stroke-miterlimit:10"
   points="487.8,197 494.3,195.9 498.4,196.8 502.6,195.9 509,197 515.9,200.4 509.5,206.7 502.4,209.5 498.4,210 494.3,209.5 487.3,206.7 480.9,200.4 "
   id="polygon981" />
	<polyline
   style="fill:none;stroke:#000000;stroke-miterlimit:10"
   points="480.9,200.4 484.5,200.7 494.5,199.9 498.4,200.4    502.4,199.9 512.3,200.7 515.9,200.4  "
   id="polyline983" />
	<polyline
   style="fill:none;stroke:#000000;stroke-miterlimit:10"
   points="480.9,200.4 484.5,200.7 494.5,202.8 498.4,203.6    502.4,202.8 512.3,200.7 515.9,200.4  "
   id="polyline985" />
	<circle
   id="rightTop0"
   cx="478.70001"
   cy="117.6"
   r="0.80000001" />
	<circle
   id="rightTop1"
   cx="466.10001"
   cy="127.1"
   r="0.80000001" />
</g>
</svg>
