<?xml version="1.0" encoding="UTF-8" standalone="no"?>
<!-- Generator: Adobe Illustrator 24.0.1, SVG Export Plug-In . SVG Version: 6.00 Build 0)  -->

<svg
   version="1.1"
   id="Layer_1"
   x="0px"
   y="0px"
   width="1200px"
   height="1200px"
   viewBox="0 0 1200 1200"
   style="enable-background:new 0 0 1200 1200;"
   xml:space="preserve"
   sodipodi:docname="skeleton.svg"
   inkscape:version="1.2.1 (9c6d41e4, 2022-07-14)"
   xmlns:inkscape="http://www.inkscape.org/namespaces/inkscape"
   xmlns:sodipodi="http://sodipodi.sourceforge.net/DTD/sodipodi-0.dtd"
   xmlns="http://www.w3.org/2000/svg"
   xmlns:svg="http://www.w3.org/2000/svg"><defs
   id="defs242" /><sodipodi:namedview
   id="namedview240"
   pagecolor="#ffffff"
   bordercolor="#000000"
   borderopacity="0.25"
   inkscape:showpageshadow="2"
   inkscape:pageopacity="0.0"
   inkscape:pagecheckerboard="0"
   inkscape:deskcolor="#d1d1d1"
   showgrid="false"
   inkscape:zoom="0.47847565"
   inkscape:cx="884.05753"
   inkscape:cy="654.16077"
   inkscape:window-width="1349"
   inkscape:window-height="776"
   inkscape:window-x="0"
   inkscape:window-y="25"
   inkscape:window-maximized="0"
   inkscape:current-layer="Layer_1" />
<g
   id="skeleton_1_"
   inkscape:label="skeleton"
   sodipodi:insensitive="true">
	<polygon
   style="fill:none;stroke:#000000;stroke-miterlimit:10"
   points="569.1,565.3 685.5,564.5 731.7,349.5 518.8,349.5 "
   id="polygon123" />
	<polyline
   style="fill:none;stroke:#000000;stroke-miterlimit:10"
   points="517.8,349.5 415.1,349.5 251.8,355.8  "
   id="polyline125" />
	<polyline
   style="fill:none;stroke:#000000;stroke-miterlimit:10"
   points="733.2,349.1 836.4,349.1 999.7,355.5  "
   id="polyline127" />
	<polyline
   style="fill:none;stroke:#000000;stroke-miterlimit:10"
   points="569.1,565.3 575.5,725.5 575.5,933.5  "
   id="polyline129" />
	<polyline
   style="fill:none;stroke:#000000;stroke-miterlimit:10"
   points="685.5,564.5 685.5,725.5 685.5,933.5  "
   id="polyline131" />
	<polyline
   style="fill:none;stroke:#000000;stroke-miterlimit:10"
   points="624.5,170 604.7,172.5 592.2,182 583.6,196.1    581.1,205.4 580.3,217.1 580.3,226.6 581.1,248.3 587.9,268.3 599.5,280.8 609.5,287.5 624.5,290.7 639.3,287.9 649.3,281.2    660.9,268.6 667.7,248.6 668.5,227 668.5,217.4 667.7,205.7 665.2,196.5 657,182 644.4,172.5 624.5,170  "
   id="polyline133" />
	<polyline
   style="fill:none;stroke:#000000;stroke-miterlimit:10"
   points="588.5,206.9 592.5,203.2 598.7,202.2 606,202.2    615.8,206.2  "
   id="polyline135" />
	<polygon
   style="fill:none;stroke:#000000;stroke-miterlimit:10"
   points="599.9,211.4 606.2,211.4 611.4,215.6 606.2,216.6 599.9,217.4 594.7,215.1 "
   id="polygon137" />
	<polyline
   style="fill:none;stroke:#000000;stroke-miterlimit:10"
   points="613,233.2 618.2,233.2 623.7,234 623.7,228.7    623.7,221.6 623.7,216.1 623.7,210.3  "
   id="polyline139" />
	<polyline
   style="fill:none;stroke:#000000;stroke-miterlimit:10"
   points="660,206.5 656,203.6 649.7,202.1 642.4,202.5    632.4,205.7  "
   id="polyline141" />
	<polygon
   style="fill:none;stroke:#000000;stroke-miterlimit:10"
   points="648.8,211.4 642.5,211.4 637.4,215.6 642.5,216.6 648.8,217.4 654.1,215.1 "
   id="polygon143" />
	<polyline
   style="fill:none;stroke:#000000;stroke-miterlimit:10"
   points="634.1,233.2 629.1,233.2 623.7,234  "
   id="polyline145" />
	<polygon
   style="fill:none;stroke:#000000;stroke-miterlimit:10"
   points="613.9,251.9 620.4,250.8 624.5,251.7 628.7,250.8 635.1,251.9 642,255.3 635.6,261.6 628.5,264.4 624.5,264.9 620.4,264.4 613.4,261.6 607,255.3 "
   id="polygon147" />
	<polyline
   style="fill:none;stroke:#000000;stroke-miterlimit:10"
   points="607,255.3 610.6,255.6 620.6,254.8 624.5,255.3    628.5,254.8 638.4,255.6 642,255.3  "
   id="polyline149" />
	<polyline
   style="fill:none;stroke:#000000;stroke-miterlimit:10"
   points="607,255.3 610.6,255.6 620.6,257.7 624.5,258.5    628.5,257.7 638.4,255.6 642,255.3  "
   id="polyline151" />
	<circle
   id="rightShoulder"
   cx="518.90002"
   cy="349.20001"
   r="8.1999998" />
	<circle
   id="rightElbow"
   cx="415.39999"
   cy="349.29999"
   r="8.1999998" />
	<circle
   id="rightWrist"
   cx="252"
   cy="355.70001"
   r="8.1999998" />
	<circle
   id="rightHip"
   cx="569.20001"
   cy="565"
   r="8.1999998" />
	<circle
   id="rightKnee"
   cx="575.59998"
   cy="725.20001"
   r="8.1999998" />
	<circle
   id="rightAnkle"
   cx="575.59998"
   cy="933.20001"
   r="8.1999998" />
	<circle
   id="leftElbow"
   cx="836.20001"
   cy="348.89999"
   r="8.1999998" />
	<circle
   id="leftWrist"
   cx="999.59998"
   cy="355.20001"
   r="8.1999998" />
	<circle
   id="leftHip"
   cx="685.59998"
   cy="564.20001"
   r="8.1999998" />
	<circle
   id="leftKnee"
   cx="685.59998"
   cy="725.20001"
   r="8.1999998" />
	<circle
   id="leftAnkle"
   cx="685.59998"
   cy="933.20001"
   r="8.1999998" />
	<circle
   id="rightEye0"
   cx="594.70001"
   cy="215.10001"
   r="0.80000001" />
	<circle
   id="rightBrow1"
   cx="592.5"
   cy="203.2"
   r="0.80000001" />
	<circle
   id="rightBrow4"
   cx="615.79999"
   cy="206.2"
   r="0.80000001" />
	<circle
   id="nose1"
   cx="623.70001"
   cy="216.10001"
   r="0.80000001" />
	<circle
   id="rightBrow3"
   cx="606"
   cy="202.2"
   r="0.80000001" />
	<circle
   id="rightEye1"
   cx="599.90002"
   cy="211.39999"
   r="0.80000001" />
	<circle
   id="rightBrow0"
   cx="588.5"
   cy="206.89999"
   r="0.80000001" />
	<circle
   id="rightBrow2"
   cx="598.70001"
   cy="202.2"
   r="0.80000001" />
	<circle
   id="rightEye5"
   cx="599.90002"
   cy="217.39999"
   r="0.80000001" />
	<circle
   id="rightEye2"
   cx="606.20001"
   cy="211.39999"
   r="0.80000001" />
	<circle
   id="rightEye3"
   cx="611.40002"
   cy="215.60001"
   r="0.80000001" />
	<circle
   id="nose0"
   cx="623.70001"
   cy="210.3"
   r="0.80000001" />
	<circle
   id="nose3"
   cx="623.70001"
   cy="228.7"
   r="0.80000001" />
	<circle
   id="rightNose0"
   cx="613"
   cy="233.2"
   r="0.80000001" />
	<circle
   id="rightMouthCorner"
   cx="607"
   cy="255.3"
   r="0.80000001" />
	<circle
   id="rightNose1"
   cx="618.20001"
   cy="233.2"
   r="0.80000001" />
	<circle
   id="rightUpperLipTop0"
   cx="613.90002"
   cy="251.89999"
   r="0.80000001" />
	<circle
   id="nose2"
   cx="623.70001"
   cy="221.60001"
   r="0.80000001" />
	<circle
   id="nose4"
   cx="623.70001"
   cy="234"
   r="0.80000001" />
	<circle
   id="upperLipTopMid"
   cx="624.5"
   cy="251.7"
   r="0.80000001" />
	<circle
   id="rightUpperLipTop1"
   cx="620.40002"
   cy="250.8"
   r="0.80000001" />
	<path
   id="rightMiddleLip"
   d="m 610.6,254.8 c 0.4,0 0.8,0.4 0.8,0.8 0,0.4 -0.4,0.8 -0.8,0.8 -0.4,0 -0.8,-0.4 -0.8,-0.8 0,-0.4 0.4,-0.8 0.8,-0.8 z" />
	<circle
   id="lowerLipBottomMid"
   cx="624.5"
   cy="264.89999"
   r="0.80000001" />
	<circle
   id="upperLipBottomMid"
   cx="624.5"
   cy="255.3"
   r="0.80000001" />
	<circle
   id="lowerLipTopMid"
   cx="624.5"
   cy="258.39999"
   r="0.80000001" />
	<circle
   id="rightUpperLipBottom1"
   cx="620.59998"
   cy="254.8"
   r="0.80000001" />
	<circle
   id="rightLowerLipTop0"
   cx="620.59998"
   cy="257.70001"
   r="0.80000001" />
	<circle
   id="rightLowerLipBottom1"
   cx="620.40002"
   cy="264.39999"
   r="0.80000001" />
	<circle
   id="rightLowerLipBottom0"
   cx="613.40002"
   cy="261.60001"
   r="0.80000001" />
	<circle
   id="rightEye4"
   cx="606.20001"
   cy="216.60001"
   r="0.80000001" />
	<circle
   id="jawMid"
   cx="624.5"
   cy="290.70001"
   r="0.80000001" />
	<circle
   id="rightJaw7"
   cx="609.5"
   cy="287.5"
   r="0.80000001" />
	<circle
   id="rightJaw6"
   cx="599.5"
   cy="280.79999"
   r="0.80000001" />
	<circle
   id="rightJaw5"
   cx="587.90002"
   cy="268.29999"
   r="0.80000001" />
	<circle
   id="rightJaw4"
   cx="581.09998"
   cy="248.3"
   r="0.80000001" />
	<circle
   id="rightJaw3"
   cx="580.29999"
   cy="226.60001"
   r="0.80000001" />
	<circle
   id="rightJaw2"
   cx="580.29999"
   cy="217.10001"
   r="0.80000001" />
	<circle
   id="rightJaw1"
   cx="581.09998"
   cy="205.39999"
   r="0.80000001" />
	<circle
   id="rightJaw0"
   cx="583.59998"
   cy="196.10001"
   r="0.80000001" />
	<circle
   id="topMid"
   cx="624.70001"
   cy="170"
   r="0.80000001" />
	<circle
   id="leftTop0"
   cx="644.40002"
   cy="172.5"
   r="0.80000001" />
	<circle
   id="leftTop1"
   cx="657"
   cy="182"
   r="0.80000001" />
	<circle
   id="leftEye0"
   cx="654.29999"
   cy="215.10001"
   r="0.80000001" />
	<circle
   id="leftBrow1"
   cx="656.20001"
   cy="203.60001"
   r="0.80000001" />
	<circle
   id="leftBrow4"
   cx="632.59998"
   cy="205.7"
   r="0.80000001" />
	<circle
   id="leftBrow3"
   cx="642.59998"
   cy="202.5"
   r="0.80000001" />
	<circle
   id="leftEye1"
   cx="649.09998"
   cy="211.39999"
   r="0.80000001" />
	<circle
   id="leftBrow0"
   cx="660.20001"
   cy="206.5"
   r="0.80000001" />
	<circle
   id="leftBrow2"
   cx="649.90002"
   cy="202.10001"
   r="0.80000001" />
	<circle
   id="leftEye5"
   cx="649.09998"
   cy="217.39999"
   r="0.80000001" />
	<circle
   id="leftEye2"
   cx="642.79999"
   cy="211.39999"
   r="0.80000001" />
	<circle
   id="leftEye3"
   cx="637.59998"
   cy="215.60001"
   r="0.80000001" />
	<circle
   id="leftNose0"
   cx="634.09998"
   cy="233.2"
   r="0.80000001" />
	<circle
   id="leftMouthCorner"
   cx="642"
   cy="255.3"
   r="0.80000001" />
	<circle
   id="leftNose1"
   cx="629.29999"
   cy="233.2"
   r="0.80000001" />
	<circle
   id="leftUpperLipTop0"
   cx="635.09998"
   cy="251.89999"
   r="0.80000001" />
	<circle
   id="leftUpperLipTop1"
   cx="628.70001"
   cy="250.8"
   r="0.80000001" />
	<path
   id="leftMiddleLip"
   d="m 638.4,254.8 c 0.4,0 0.8,0.4 0.8,0.8 0,0.4 -0.4,0.8 -0.8,0.8 -0.4,0 -0.8,-0.4 -0.8,-0.8 0,-0.4 0.4,-0.8 0.8,-0.8 z" />
	<circle
   id="leftUpperLipBottom1"
   cx="628.5"
   cy="254.8"
   r="0.80000001" />
	<circle
   id="leftLowerLipTop0"
   cx="628.5"
   cy="257.70001"
   r="0.80000001" />
	<circle
   id="leftLowerLipBottom1"
   cx="628.70001"
   cy="264.39999"
   r="0.80000001" />
	<circle
   id="leftLowerLipBottom0"
   cx="635.59998"
   cy="261.60001"
   r="0.80000001" />
	<circle
   id="leftEye4"
   cx="642.79999"
   cy="216.60001"
   r="0.80000001" />
	<circle
   id="leftJaw7"
   cx="639.29999"
   cy="287.89999"
   r="0.80000001" />
	<circle
   id="leftJaw6"
   cx="649.29999"
   cy="281.20001"
   r="0.80000001" />
	<circle
   id="leftJaw5"
   cx="660.90002"
   cy="268.60001"
   r="0.80000001" />
	<circle
   id="leftJaw4"
   cx="667.70001"
   cy="248.60001"
   r="0.80000001" />
	<circle
   id="leftJaw3"
   cx="668.5"
   cy="227"
   r="0.80000001" />
	<circle
   id="leftJaw2"
   cx="668.5"
   cy="217.39999"
   r="0.80000001" />
	<circle
   id="leftJaw1"
   cx="667.70001"
   cy="205.7"
   r="0.80000001" />
	<circle
   id="leftJaw0"
   cx="665.20001"
   cy="196.5"
   r="0.80000001" />
	<circle
   id="rightTop0"
   cx="604.79999"
   cy="172.5"
   r="0.80000001" />
	<circle
   id="rightTop1"
   cx="592.20001"
   cy="182"
   r="0.80000001" />
	<circle
   id="leftShoulder"
   cx="731.79999"
   cy="349.20001"
   r="8.1999998" />
</g>
<g
   id="g237"
   inkscape:label="illustration"><path
     style="opacity:1;fill:#ff0000"
     d="m 476.51327,300.95575 h 79.41888 l 18.80974,96.13864 106.58849,-6.26991 22.98968,-98.22861 h 73.14896 l -58.51917,259.15634 150.47788,384.55457 -478.60325,2.08997 146.29794,-382.4646 z"
     id="path519" /><ellipse
     style="opacity:1;fill:#ffffff"
     id="path801"
     cx="502.63791"
     cy="781.64899"
     rx="24.03466"
     ry="27.169617" /><ellipse
     style="opacity:1;fill:#ffffff"
     id="path803"
     cx="653.11578"
     cy="849.573"
     rx="26.124632"
     ry="24.03466" /><ellipse
     style="opacity:1;fill:#ffffff"
     id="path805"
     cx="754.47931"
     cy="765.97418"
     rx="27.169617"
     ry="24.03466" /><ellipse
     style="opacity:1;fill:#ffffff"
     id="path807"
     cx="695.96021"
     cy="471.28836"
     rx="20.899706"
     ry="19.854719" /><ellipse
     style="opacity:1;fill:#ffffff"
     id="path809"
     cx="521.44763"
     cy="375.14969"
     rx="21.944691"
     ry="19.854719" /><circle
     style="opacity:1;fill:#ffffff"
     id="path811"
     cx="589.3717"
     cy="522.49261"
     r="22.989676" /><ellipse
     style="opacity:1;fill:#ffffff"
     id="path813"
     cx="577.87683"
     cy="678.19537"
     rx="24.03466"
     ry="19.854719" /><ellipse
     style="opacity:1;fill:#ffffff"
     id="path815"
     cx="831.80823"
     cy="920.63202"
     rx="18.809734"
     ry="17.76475" /><ellipse
     style="opacity:1;fill:#ffffff"
     id="path817"
     cx="453.52359"
     cy="909.13721"
     rx="20.899706"
     ry="16.719765" /><ellipse
     style="opacity:1;fill:#ffffff"
     id="path821"
     cx="717.90485"
     cy="626.99115"
     rx="26.124632"
     ry="18.809734" /><path
     style="opacity:1;fill:#2b1100"
     d="m 560.11209,942.57669 c 0.002,2.63792 -0.0181,16.75597 -2.08997,20.89971 -2.48841,4.97682 -20.07866,5.44887 -20.8997,6.26991 -0.49261,0.49261 0.49261,1.59736 0,2.08997 -2.09933,2.09933 -11.48385,2.60697 -14.6298,4.17994 -10.90185,5.45093 -17.53273,10.85634 -29.25958,16.71977 -1.26187,0.63093 -5.3038,-0.96612 -6.26991,0 -0.49262,0.49261 0.49261,1.59736 0,2.08997 -1.10152,1.10151 -3.07843,0.98846 -4.17995,2.08997 -2.89575,2.89575 -4.24664,6.30327 -8.35988,8.35987 -2.63862,1.3193 -10.53347,-2.0063 -12.53982,0 -0.49261,0.4926 0.49261,1.5974 0,2.09 -1.55777,1.5578 -4.43689,0.8679 -6.26991,2.0899 -4.14036,-0.2086 -0.98846,3.0785 -2.08997,4.18 -0.49261,0.4926 -2.78663,0 -2.08997,0 9.59826,0 18.19441,0.1538 27.16961,-2.09 2.02757,-0.5069 4.28719,0.6609 6.26991,0 2.38294,-0.7943 3.88698,-3.3856 6.26992,-4.1799 1.98272,-0.6609 4.40058,0.9346 6.26991,0 0.88121,-0.4406 1.15531,-1.7784 2.08997,-2.09 4.36695,-1.4556 10.15519,1.1187 14.62979,0 6.38185,-1.5955 9.1219,-8.61388 14.6298,-10.44984 1.32181,-0.44061 2.93372,0.6231 4.17994,0 0.62311,-0.31156 -0.49261,-1.59736 0,-2.08997 1.32569,-1.3257 6.61979,0.87004 8.35988,0 2.43455,-1.21728 3.83536,-2.96267 6.26991,-4.17995 0.42871,-0.21435 5.97517,-0.29474 6.26991,0 2.19851,2.19851 0,17.83566 0,20.89966 0,1.3934 -0.98522,3.1948 0,4.18 2.62213,2.6221 12.61291,-3.1715 14.62979,-4.18 1.24622,-0.6231 3.19472,0.9853 4.17995,0 1.15813,-1.1581 3.78013,-9.4503 4.17994,-10.4498 2.18607,-5.46518 6.64353,-11.57073 8.35988,-16.71977 3.48452,-10.45357 -2.08997,-23.80282 -2.08997,-33.43953 0,-2.51033 -1.0988,-8.25225 0,-10.44985 2.58258,-5.16516 2.08997,0.72141 2.08997,-4.17994"
     id="path949" /><path
     style="opacity:1;fill:#2b1100"
     d="m 672.9705,938.39675 c 0,21.59636 0,43.19273 0,64.78905 0,2.5545 1.01081,5.1908 2.08997,6.2699 1.32569,1.3257 6.6198,-0.87 8.35988,0 1.31325,0.6567 6.19548,4.2544 8.35988,2.09 1.33442,-1.3344 0,-10.8652 0,-12.5398 0,-3.90039 0.44616,-2.98229 2.08997,-6.26991 1.82597,-3.65193 0,-12.70344 0,-16.71977 0,-1.39331 -0.98522,-3.19472 0,-4.17994 0.33126,-0.33126 8.35189,4.17595 12.53983,6.26991 2.35009,1.17505 3.79424,5.44469 6.26991,6.26991 1.32181,0.44061 2.82823,-0.33792 4.17994,0 6.0614,1.51535 2.44582,1.63055 6.26991,4.17994 3.85841,2.57228 8.68142,3.69764 12.53982,6.26992 8.6506,5.76704 16.46089,12.41034 25.07965,16.71974 7.80256,3.9013 21.45703,-3.9013 29.25959,0 2.06715,1.0336 16.74479,6.2449 18.80973,4.18 1.65159,-1.6516 -2.85484,-9.1248 -4.17994,-10.4499 -2.98777,-2.9878 -8.82855,-4.6486 -10.44985,-6.2699 -0.49261,-0.49261 0.31155,-1.46686 0,-2.08997 -0.81687,-1.63373 -9.01358,-5.91085 -10.44985,-6.26992 -6.96657,-1.74164 -4.64438,1.1611 -10.44986,0 -11.74328,-2.34865 -18.07927,-8.06769 -29.25958,-12.53982 -2.33218,-0.93287 -3.88698,-3.38563 -6.26992,-4.17994 -1.98272,-0.66091 -4.40058,0.93466 -6.26991,0 -2.82343,-1.41172 -5.64812,-2.82406 -8.35988,-4.17994 -1.76242,-0.88121 -2.41752,-3.29873 -4.17994,-4.17994 -1.67198,-0.83599 -4.59793,0.83599 -6.26991,0 -0.62311,-0.31156 0.49261,-1.59736 0,-2.08997 -0.98522,-0.98522 -3.19472,0.98522 -4.17994,0 -0.49261,-0.49261 0.49261,-1.59736 0,-2.08997 -0.98522,-0.98522 -2.93373,0.62311 -4.17994,0 -0.88121,-0.44061 -1.20876,-1.64937 -2.08997,-2.08997 -4.77937,-2.38968 -9.23981,1.21004 -12.53983,-2.08997 -0.78167,-0.78168 -0.78167,-18.02806 0,-18.80974 1.94654,-1.94654 2.08997,0.16392 2.08997,-4.17994"
     id="path951"
     inkscape:label="path951" /></g><g
   inkscape:groupmode="layer"
   id="layer1"
   inkscape:label="Layer 1" /></svg>
