<svg id="Layer_1" data-name="Layer 1" xmlns="http://www.w3.org/2000/svg" width="180" height="132.19" viewBox="0 0 180 132.19"><defs><style>.cls-1{fill:#fff;}.cls-2{font-size:8.57px;fill:#231f20;font-family:Helvetica-Bold, Helvetica;font-weight:700;}.cls-3{letter-spacing:-0.07em;}</style></defs><path d="M314.52,285c.24,6.27-.6,12.34-1.34,18.36-1.53,1.38-4,1.14-6,.89-.69-.15-.74-.84-.79-1.38.94-6,1-12.34,1.68-18.42,1.28-1.08,3.41-.54,5-.44C313.58,284.16,314.32,284.25,314.52,285Z" transform="translate(-225.8 -283.74)"/><path d="M285,290.18a63.22,63.22,0,0,1,3.26,10.12c-1.83.84-3.6,2.07-5.83,1.68l-.83-.79c-1.14-3.31-2.72-6.47-3.11-10.12.29-2.08,2.66-1.68,4.09-2.22A2.34,2.34,0,0,1,285,290.18Z" transform="translate(-225.8 -283.74)"/><path d="M368.23,292.75c.44.84-.1,1.58-.54,2.22-4.89,5.33-8.94,11.4-14.67,16-1.58.15-2.81-1-4.19-1.58-.55-.79-1.24-1.67-.69-2.66C353,301.24,358,295.81,362.06,290a2.06,2.06,0,0,1,2.52-.59C365.86,290.33,367.59,291.17,368.23,292.75Z" transform="translate(-225.8 -283.74)"/><path d="M339.94,294.52c.25,3.06-2,5.34-2.81,8.1-.6,1.33-.55,3-1.78,4a16.63,16.63,0,0,1-5.88-.64c-.69-.45-.24-1.43-.19-2.13,1.68-4,2.66-8.34,5-12.09A9.52,9.52,0,0,1,339.94,294.52Z" transform="translate(-225.8 -283.74)"/><path d="M253.15,292.94c4.64,3.56,9.43,6.87,13.77,11,.15,1.29-1.18,1.78-1.87,2.57a7.31,7.31,0,0,1-2.77,1.88l-1-.35c-4.25-3.16-8.74-5.78-12.64-9.43-.3-.59-.69-1.38-.25-2a11.25,11.25,0,0,1,4-3.76Z" transform="translate(-225.8 -283.74)"/><path d="M302.27,318c12.89-1.72,26.46-5.72,39.79-2.37,5.83,1.88,6.47,8.25,6.67,13.58a19.26,19.26,0,0,0,2.22.74c2.91,1.38,5.38,4.05,5.33,7.46.15,3.3-1.63,5.87-3.6,8.34,2.37,4.59,1,10.71-1.63,14.76a9.76,9.76,0,0,1-10.22,4.59c-3.46-1.38-5.88-5-7.21-8.24-5.43,2.17-11.2,4.64-17.57,3.45a7.55,7.55,0,0,1-5.53-5.08,16.94,16.94,0,0,1,0-5.73,17.46,17.46,0,0,0-4,.25c-.74,3.75-.64,7.95-1.14,11.8a1.17,1.17,0,0,1-.89.89A179.77,179.77,0,0,1,285,364.73a7.27,7.27,0,0,1-5.63-2.92c-4.74-.79-10.46-1.48-12.49-6.61-.64-2.52,1.58-4.35,2.92-6.27l4-3.75a50.38,50.38,0,0,1-.55-8.79c-3-1.14-6.17-3.51-7.25-6.67a16.94,16.94,0,0,1,6-18c5.38-4.49,13.53-6.37,20.24-3.55C296.3,310.27,300.64,313.63,302.27,318Z" transform="translate(-225.8 -283.74)"/><path class="cls-1" d="M294.08,317.63c1.43,2.12,2.12,4.54,3.3,6.76.5.69,1.39.2,2,.1a171.8,171.8,0,0,1,18.46-3.31c7.41-.34,15.9-1.63,22.32,1.78,2.12,1.38,1.48,4.49,1.23,6.67-1.43,4.09-3.26,8.14-6.76,11.2a1.34,1.34,0,0,0-1,1.09c.35,1.08.4,2.42,1.33,3.16,4.1-.1,9.29-.45,12.1,3.11,1.53,4.05-.3,8.24-2.76,11.4-.7,1.09-1.63.3-2.28-.39-1.67-2.13-1.92-4.89-2.22-7.61-.54-1.43-2.27-1.23-3.4-1-6,1.63-11.7,6.17-18.47,3.9-1.63-2.37.25-4.89,1.14-7l4.44-6.91a5,5,0,0,0-.34-3.07,2.74,2.74,0,0,0-2.87-.88c-3.45,1-5.77,4.69-7.6,7.55l-5.63.2c-.25-3.26.3-6.87-1-9.68a2.12,2.12,0,0,0-2.32-.35c-1.18.55-2.71.6-3.55,1.78a73.6,73.6,0,0,1-1.63,21.92c-4,.2-8.15,1.48-12.24.64l-.2-.29c2-2.72,5.28-3.16,7.4-5.68-.79-6.71-1.58-13.43-2.76-20-.69-1.73-2.57-.05-4-.45-5.23-.1-11.21.2-14.37-4.44-1.38-4.54,1.44-8.3,4-11.7,3-2.67,6.87-4.59,10.91-3.51A13.55,13.55,0,0,1,294.08,317.63Z" transform="translate(-225.8 -283.74)"/><path d="M378.8,316.59a1.91,1.91,0,0,1-1.09,2.22,95.77,95.77,0,0,1-13.33,4.59c-.84.1-1.23-.69-1.43-1.33-.25-1.43-1-3-.45-4.44,4.3-1.73,8.64-3.36,12.89-5,.54.1,1-.29,1.43,0C378.05,313.68,378.3,315.16,378.8,316.59Z" transform="translate(-225.8 -283.74)"/><path d="M249.94,316.05c2.91.54,6,.59,8.69,1.68.69,1.18-.4,2.32-.44,3.55-.4.84-.6,2.12-1.78,2.22-5.63-1.13-11.75-1.23-17.33-2.66-.54-2.08.79-4,1.88-5.78C244.07,314.57,246.88,315.9,249.94,316.05Z" transform="translate(-225.8 -283.74)"/><path d="M391.48,330.51c.2,1.73,1.14,3.36.55,5.19l-.55.44c-7.85.64-16,.74-23.55,1.93-1.77-.89-1.33-3.36-1.77-5.14-.05-.79.84-.74,1.23-1.08,7.9-.6,15.7-1.63,23.65-1.88Z" transform="translate(-225.8 -283.74)"/><path d="M255.27,334c.15,2,.69,4.79-1.13,5.87-4.79,1.29-9.83,1.88-14.67,2.87-.93-.1-2,.54-2.76-.2a11.29,11.29,0,0,1,.1-6l.94-.64c5.18-.89,10.22-2.18,15.55-2.67C254.09,333.13,254.93,333.18,255.27,334Z" transform="translate(-225.8 -283.74)"/><path class="cls-1" d="M350,336.93a7.83,7.83,0,0,1-2.61,4.79c-1.19-.64-2.67-.69-4-1.13.89-2.18,2.51-3.95,3.5-6.08A4.53,4.53,0,0,1,350,336.93Z" transform="translate(-225.8 -283.74)"/><path class="cls-1" d="M285,338.61c.5,4.05,1.24,8.05,1,12.24a38,38,0,0,0-6.22,4.79c-1.78-.19-3.95,0-5-1.68.4-2.37,2.87-4,4.69-5.38.45-.14,1-.44,1.09-1a72.66,72.66,0,0,1-1.09-9.88c1.88,0,3.21-.1,5.19-.2Z" transform="translate(-225.8 -283.74)"/><path d="M380.62,351.25c2,1,.45,3.6.3,5.23-.25.35-.45.94-1,.94-5.38-1.13-10.81-2.07-16-3.7-.88-1.53.15-3.31.45-4.89l.54-.64C370.16,349.23,375.44,350.06,380.62,351.25Z" transform="translate(-225.8 -283.74)"/><path d="M258,352.38c.34.65.79,1.49.34,2.23-4.59,3.06-9.67,5-14.46,7.55a2.75,2.75,0,0,1-2.62-1c-.64-1.18-2-2.22-1.58-3.75l.45-.69a96.6,96.6,0,0,1,14.56-7.21C256.26,349.62,257.2,351.35,258,352.38Z" transform="translate(-225.8 -283.74)"/><path d="M263.81,365.81l-.1,1L244.26,382c-2,.69-3.45-1-5-1.93-.4-.59-1.09-1.23-.79-2,6.81-5.73,14-11.41,21.13-16.64A8,8,0,0,1,263.81,365.81Z" transform="translate(-225.8 -283.74)"/><path d="M377.26,374.7c1.09,1.93-.34,3.95-1.53,5.48-1.67.25-3-1-4.49-1.58-4.54-3.06-9.63-4.84-14.22-7.85-1.23-1.78.64-3.41,1.14-5,.94-1.23,2.17,0,3.11.35C366.6,368.92,372.33,370.9,377.26,374.7Z" transform="translate(-225.8 -283.74)"/><path d="M283,372.08l-.05.84c-3,4.05-6.86,7.75-9.68,11.9-1.13,1-2.86.35-4-.1-.74-.64-1.92-.89-2.22-2l.15-.94c3-4.3,6.81-8.3,10.12-12.39C279.71,368,281.54,370.55,283,372.08Z" transform="translate(-225.8 -283.74)"/><path d="M343,372.73c2.13,6.27,4.84,12.29,5.88,19-.94,2.37-3.61,1.43-5.58,1.78a1.59,1.59,0,0,1-1-.79c-1.43-5.92-3.5-11.55-5.08-17.43-.05-.74-.35-1.87.29-2.47C338.9,371.84,341.87,370.75,343,372.73Z" transform="translate(-225.8 -283.74)"/><path d="M324,375.39c-.44,4.69-.93,9.38-1,14.22l-.6.64c-1.92-.44-5,1-5.62-1.43,0-4.74.69-9.18,1-13.77a1.74,1.74,0,0,1,1.09-1.44C320.74,373.66,323.3,373.37,324,375.39Z" transform="translate(-225.8 -283.74)"/><path d="M302.47,376.48c-1.83,7-3.36,14.07-5.63,20.88l-.54.44c-2,.05-3.75-.74-5.68-1.08-.59-.54-.34-1.58-.15-2.22,1.63-6.62,3.46-13.14,4.94-19.8a1.84,1.84,0,0,1,1.33-.64C298.72,374.75,302,373.91,302.47,376.48Z" transform="translate(-225.8 -283.74)"/><text class="cls-2" transform="translate(0 128.07) scale(1.13 1)">THE KEITH HARING FOUND<tspan class="cls-3" x="114.28" y="0">A</tspan><tspan x="119.83" y="0">TION INC.</tspan></text></svg>